<svg xmlns="http://www.w3.org/2000/svg" version="1.1" xmlns:xlink="http://www.w3.org/1999/xlink" xmlns:svgjs="http://svgjs.dev/svgjs" width="1000" height="1000" viewBox="0 0 1000 1000"><rect width="1000" height="1000" fill="#000000"></rect><g transform="matrix(0.7,0,0,0.7,150,150)"><svg viewBox="0 0 280 280" data-background-color="#282634" preserveAspectRatio="xMidYMid meet" height="1000" width="1000" xmlns="http://www.w3.org/2000/svg" xmlns:xlink="http://www.w3.org/1999/xlink"><g id="tight-bounds" transform="matrix(1,0,0,1,0,0)"><svg viewBox="0 0 280 280" height="280" width="280"><g><svg viewBox="0 0 280 280" height="280" width="280"><g><svg viewBox="0 0 280 280" height="280" width="280"><g id="textblocktransform"><svg viewBox="0 0 280 280" height="280" width="280" id="textblock"><g><svg viewBox="0 0 280 280" height="280" width="280"><g transform="matrix(1,0,0,1,57.50420886156945,57.50420886156945)"><svg viewBox="0 0 164.9915822768611 164.9915822768611" height="164.9915822768611" width="164.9915822768611"><g><circle r="82" cx="82.49579113843055" cy="82.49579113843055" fill="#ffffff" data-fill-palette-color="accent"></circle><svg xmlns="http://www.w3.org/2000/svg" xmlns:xlink="http://www.w3.org/1999/xlink" version="1.1" x="24.748737341529164" y="24.74873734152917" viewBox="19.01999855041504 11.002994537353516 58.62200164794922 75.66500854492188" enable-background="new 0 0 100 100" xml:space="preserve" height="115.49410759380275" width="115.49410759380275" class="icon-o-0" data-fill-palette-color="quaternary" id="o-0"><path fill="#000000" d="M56.532 61.533c-0.046-0.031-0.348-0.878-0.348-0.878l-1.39-2.777-8.94-14.86V41.81l13.168 17.216 0.188 0.737 0.143 0.05c0 0 0.089 0.009 0 0C61.217 60.285 62.25 62 62.25 62l0.322 0.711 1.148-4.652c0 0 12.804-12.686 13.922-21.384l-3.169 0.846c0 0-3.443-3.503-3.807-5.799-0.362-2.296-1.147-10.632-4.652-12.685 0 0-1.69-0.423-2.958 0.303 0 0-4.712-5.498-11.658-5.377l-0.725-2.96c0 0-21.626 1.692-21.444 23.317 0 0-0.478 8.635 4.536 13.83L33.583 47.7c0 0 1.625 3.169-0.791 6.432 0 0-2.174-0.06-2.537 2.235l-2.899 5.195c0 0-0.967-0.122-1.752 1.268-0.785 1.391-6.584 12.868-6.584 12.868s15.887-7.793 22.532-6.584c0 0 12.261-0.594 23.982 17.554 0 0 0.903-13.689-2.236-15.32M56.352 49.542l5.557-7.49h0.423l2.357 0.302L57.8 50.87 56.352 49.542zM60.58 52.865l-1.631-1.21 7.248-9.121h2.236L60.58 52.865zM73.083 42.051c0 0-8.576 12.988-9.725 12.928-1.148-0.062-1.631-1.209-1.631-1.209s9.241-10.573 8.698-11.236L73.083 42.051zM68.287 34.378l1.15 3.153-9.447-2.042-1.041-3.637L68.287 34.378zM58.465 41.387l2.115 0.604-5.437 6.846-1.391-1.59L58.465 41.387z" data-fill-palette-color="quaternary"></path></svg></g></svg></g><g><path d="M31.345 105.714c-0.423 1.219-0.927 2.309-1.513 3.268-0.584 0.952-1.125 1.722-1.624 2.309-0.497 0.581-0.762 0.866-0.793 0.856v0l-0.668 0.127c-0.174-0.088-0.555-0.288-1.145-0.597-0.59-0.31-1.391-0.701-2.403-1.172-1.015-0.465-2.013-0.867-2.993-1.207v0l0.895-3.344c1.483 0.514 2.67 0.778 3.56 0.791 0.886 0.004 1.603-0.247 2.152-0.754 0.549-0.507 1.025-1.342 1.428-2.504v0c0.442-1.276 0.517-2.394 0.224-3.355-0.287-0.959-0.921-1.608-1.902-1.948v0c-0.88-0.305-1.764-0.161-2.653 0.432-0.891 0.599-2.039 1.606-3.445 3.02v0c-0.094 0.087-0.347 0.341-0.76 0.761v0c-1.638 1.657-3.181 2.858-4.629 3.602-1.448 0.744-3.021 0.822-4.718 0.234v0c-1.509-0.523-2.711-1.443-3.606-2.761-0.893-1.324-1.398-2.903-1.515-4.74-0.123-1.838 0.168-3.776 0.875-5.812v0c0.405-1.169 0.859-2.223 1.36-3.162 0.508-0.936 0.95-1.674 1.327-2.212 0.383-0.536 0.627-0.874 0.732-1.014v0l0.617-0.103c0.148 0.08 0.523 0.298 1.125 0.654 0.606 0.365 1.389 0.788 2.348 1.269 0.96 0.481 1.958 0.943 2.995 1.387v0l-0.785 3.023-0.36 0.277c-0.082-0.028-0.244-0.099-0.486-0.211-0.243-0.112-0.55-0.233-0.921-0.362v0c-1.194-0.414-2.146-0.41-2.856 0.013-0.71 0.423-1.308 1.335-1.794 2.737v0c-0.397 1.144-0.447 2.172-0.151 3.085 0.288 0.917 0.856 1.522 1.705 1.816v0c0.635 0.22 1.29 0.19 1.964-0.09 0.683-0.284 1.322-0.686 1.918-1.205 0.598-0.525 1.417-1.304 2.458-2.337v0c1.231-1.235 2.303-2.236 3.217-3.004 0.92-0.765 1.944-1.322 3.072-1.67 1.136-0.352 2.327-0.313 3.571 0.118v0c1.59 0.551 2.83 1.495 3.719 2.832 0.891 1.33 1.379 2.939 1.463 4.827 0.093 1.884-0.242 3.926-1.005 6.126z" fill="#ffffff" data-fill-palette-color="primary"></path><path d="M39.172 87.141l-2.031-1.797c0.508-1.115 0.686-1.974 0.534-2.578-0.154-0.613-0.713-1.259-1.675-1.936v0l-13.316-9.378c-0.713-0.502-1.246-0.755-1.6-0.76-0.35-0.011-0.704 0.237-1.06 0.742v0l-0.697 1.059-0.398-0.024-1.819-1.646 2.917-4.073c0.628-0.892 1.749-2.658 3.364-5.297v0l2.133 1.807c-0.334 0.66-0.519 1.176-0.555 1.551-0.037 0.365 0.058 0.704 0.284 1.017 0.226 0.314 0.656 0.726 1.289 1.238v0l4.803 3.7 3.251-4.461c0.839-1.191 1.717-2.611 2.634-4.26v0l-5.295-3.729c-0.713-0.502-1.244-0.758-1.595-0.769-0.354-0.005-0.708 0.242-1.06 0.743v0l-0.72 1.092-0.398-0.024-1.795-1.68 3.084-4.309c0.532-0.756 1.621-2.475 3.266-5.158v0l2.115 1.746c-0.483 0.929-0.695 1.61-0.634 2.043 0.052 0.435 0.394 0.908 1.027 1.419v0c1.938 1.535 4.186 3.265 6.745 5.19 2.559 1.924 4.722 3.509 6.49 4.753v0c0.963 0.678 1.684 1.04 2.165 1.085 0.481 0.046 0.914-0.206 1.301-0.755v0c0.176-0.25 0.447-0.71 0.813-1.38v0l0.343 0.033 1.952 1.839c-0.226 0.321-0.408 0.551-0.547 0.689v0c-1.273 1.715-2.289 3.112-3.047 4.189v0l-3.279 4.794-1.999-1.823c0.44-0.683 0.695-1.264 0.764-1.744 0.068-0.489-0.073-0.959-0.424-1.409-0.356-0.454-0.958-0.98-1.806-1.577v0l-4.439-3.126-2.693 3.755c-0.356 0.506-0.805 1.219-1.347 2.139-0.551 0.922-1.135 1.918-1.752 2.989v0l4.846 3.571c0.941 0.663 1.637 1.015 2.088 1.056 0.451 0.041 0.863-0.202 1.234-0.73v0c0.161-0.228 0.427-0.676 0.798-1.342v0l0.325-0.027 1.952 1.838c-1.235 1.604-2.24 2.955-3.013 4.054v0c-0.552 0.783-1.19 1.766-1.917 2.947-0.735 1.183-1.271 2.087-1.606 2.714z" fill="#ffffff" data-fill-palette-color="primary"></path><path d="M70.81 51.626c-5.153 3.929-9.567 3.485-13.242-1.335v0l-8.17-10.713c-0.561-0.735-1.004-1.163-1.329-1.283-0.32-0.124-0.705-0.014-1.155 0.329v0c-0.222 0.169-0.431 0.345-0.627 0.528-0.195 0.183-0.325 0.298-0.388 0.346v0l-0.175-0.08-1.356-2.404c0.328-0.217 0.955-0.657 1.879-1.321 0.921-0.669 1.894-1.394 2.921-2.177v0c0.577-0.44 1.29-1.03 2.139-1.769 0.854-0.735 1.413-1.224 1.679-1.469v0l1.458 2.39c-0.646 0.635-0.999 1.176-1.058 1.623-0.062 0.457 0.114 1 0.528 1.63v0l7.217 9.958c1.291 1.693 2.652 2.726 4.083 3.099 1.431 0.373 2.826 0.041 4.185-0.996v0c2.788-2.126 3.06-4.66 0.817-7.601v0c-1.311-1.719-2.824-3.67-4.537-5.852-1.718-2.187-2.929-3.72-3.632-4.597v0c-0.587-0.715-1.036-1.139-1.346-1.271-0.31-0.132-0.676-0.036-1.099 0.287v0c-0.222 0.169-0.439 0.351-0.65 0.546-0.206 0.191-0.354 0.32-0.444 0.389v0l-0.167-0.087-1.356-2.404c0.291-0.222 0.832-0.609 1.623-1.163 0.801-0.552 1.579-1.116 2.336-1.693v0c0.714-0.545 1.467-1.165 2.258-1.861 0.795-0.69 1.307-1.144 1.536-1.359v0l1.458 2.339c-0.502 0.592-0.843 1.045-1.023 1.358-0.185 0.317-0.246 0.61-0.182 0.88 0.063 0.27 0.248 0.605 0.554 1.007v0l7.934 10.403c1.908 2.502 2.637 4.983 2.187 7.443-0.45 2.46-2.069 4.753-4.856 6.88z" fill="#ffffff" data-fill-palette-color="primary"></path><path d="M88.591 39.807l-0.757-2.732c0.919-0.565 1.463-1.156 1.634-1.773 0.173-0.611 0.024-1.488-0.447-2.632v0l-6.087-14.924c-0.332-0.806-0.645-1.306-0.941-1.501-0.29-0.197-0.721-0.178-1.293 0.057v0l-1.194 0.535-0.323-0.234-0.612-2.381 5.229-2.109c0.726-0.299 1.765-0.773 3.116-1.422 1.358-0.652 2.253-1.082 2.686-1.289v0l0.828 2.8c-0.837 0.467-1.418 0.882-1.743 1.245-0.321 0.355-0.468 0.732-0.441 1.132 0.027 0.399 0.171 0.984 0.431 1.754v0c1.313 4.014 3.128 8.835 5.444 14.465v0c0.289 0.701 0.565 1.189 0.828 1.461 0.267 0.264 0.591 0.386 0.971 0.367 0.386-0.022 0.93-0.178 1.632-0.467v0c1.298-0.534 2.206-1.073 2.723-1.617 0.517-0.544 0.767-1.283 0.749-2.218-0.018-0.935-0.282-2.312-0.793-4.13v0l3.012-1.65 0.436 0.274c0.123 0.525 0.427 1.695 0.915 3.508 0.49 1.82 1.048 3.709 1.674 5.668v0l-0.228 0.547c-0.712 0.264-2.255 0.831-4.631 1.7-2.37 0.867-4.502 1.691-6.398 2.471v0c-1.427 0.587-2.769 1.2-4.023 1.839-1.255 0.639-2.054 1.057-2.397 1.256z" fill="#ffffff" data-fill-palette-color="primary"></path><path d="M115.677 30.327l-0.088-2.753c1.259-0.307 2.151-0.612 2.677-0.914 0.518-0.308 0.834-0.753 0.946-1.336 0.105-0.588 0.06-1.52-0.135-2.796v0l-2.551-16.681c-1.602 0.306-2.712 0.617-3.33 0.933-0.617 0.323-0.998 0.843-1.145 1.558-0.145 0.722-0.178 1.986-0.096 3.791v0l-3.376 0.768c-0.155-2.332-0.439-5.31-0.851-8.935v0l0.382-0.533 4.195-0.167 12.972-1.984 4.132-1.106 0.524 0.394c0.568 3.319 1.148 6.168 1.741 8.547v0l-3.375 0.769c-0.512-1.853-0.94-3.107-1.282-3.762-0.343-0.661-0.829-1.061-1.456-1.2-0.635-0.145-1.719-0.131-3.254 0.043v0c0.176 2.073 0.484 4.88 0.924 8.42 0.446 3.533 0.89 6.742 1.331 9.629v0c0.157 1.026 0.447 1.732 0.87 2.118 0.43 0.392 1.05 0.526 1.858 0.403v0c0.691-0.106 1.417-0.26 2.18-0.465v0l0.2 0.181 0.052 2.849c-2.957 0.338-5.349 0.646-7.178 0.927v0c-1.447 0.221-3.736 0.655-6.867 1.302z" fill="#ffffff" data-fill-palette-color="primary"></path><path d="M142.074 27.487l-0.831-1.938 16.952-20.784-5.486-0.202c-1.239 0.018-2.195 0.157-2.869 0.417-0.674 0.254-1.192 0.724-1.554 1.411-0.368 0.679-0.672 1.685-0.91 3.018v0l-3.501-0.096c0.111-0.584 0.35-1.814 0.717-3.689 0.374-1.882 0.667-3.631 0.881-5.248v0l0.458-0.376 7.412 1.206 12.169 1.366 0.549 1.749c-5.718 6.226-11.503 13.097-17.356 20.614v0l6.71 0.193c1.411-0.001 2.55-0.466 3.418-1.396 0.867-0.924 1.574-2.458 2.121-4.604v0l3.465 0.043c-0.147 0.607-0.447 1.911-0.899 3.912-0.452 1.994-0.802 3.842-1.05 5.542v0l-0.794 0.724-16.43-1.889z" fill="#ffffff" data-fill-palette-color="primary"></path><path d="M182.493 36.263c-2.392-0.897-4.282-2.177-5.669-3.842-1.383-1.655-2.199-3.592-2.447-5.809-0.246-2.224 0.108-4.61 1.064-7.158v0c1.044-2.785 2.522-5.001 4.434-6.651 1.905-1.652 4.115-2.656 6.629-3.013 2.517-0.364 5.155-0.028 7.915 1.006v0c0.972 0.364 1.988 0.827 3.049 1.389 1.065 0.57 1.961 1.08 2.688 1.53 0.733 0.452 1.191 0.745 1.376 0.878v0l0.054 0.596c-0.126 0.166-0.377 0.551-0.754 1.156-0.378 0.611-0.852 1.439-1.421 2.483-0.575 1.042-1.132 2.166-1.669 3.371v0l-3.835-1.171c0.037-0.1 0.141-0.338 0.311-0.715 0.174-0.368 0.354-0.802 0.541-1.3v0c0.432-1.152 0.395-2.133-0.112-2.941-0.509-0.802-1.527-1.489-3.054-2.061v0c-2.074-0.778-3.932-0.636-5.573 0.425-1.641 1.061-2.999 3.025-4.074 5.89v0c-1.21 3.227-1.565 5.954-1.064 8.181 0.501 2.227 1.801 3.734 3.9 4.521v0c1.445 0.542 2.741 0.527 3.886-0.045 1.142-0.581 2.23-1.768 3.265-3.562v0l3.875 1.176c-0.249 0.418-0.758 1.35-1.528 2.796-0.765 1.454-1.432 2.852-1.999 4.195v0l-0.571 0.329c-0.009 0.025-0.505 0.01-1.486-0.045-0.983-0.049-2.158-0.195-3.524-0.437-1.36-0.24-2.762-0.631-4.207-1.172z" fill="#ffffff" data-fill-palette-color="primary"></path><path d="M208.661 51.078c-1.982-1.471-3.376-3.181-4.183-5.131-0.811-1.944-1.011-4.002-0.6-6.174 0.41-2.182 1.425-4.365 3.047-6.55v0c1.737-2.34 3.729-4.059 5.978-5.157 2.245-1.093 4.572-1.511 6.983-1.255 2.415 0.251 4.715 1.188 6.9 2.81v0c2.03 1.507 3.469 3.229 4.317 5.167 0.848 1.938 1.071 3.993 0.67 6.164-0.403 2.162-1.415 4.335-3.037 6.52v0c-1.741 2.345-3.75 4.077-6.03 5.194-2.283 1.123-4.641 1.548-7.073 1.275-2.436-0.267-4.76-1.222-6.972-2.863zM211.678 48.855c1.624 1.205 3.362 1.509 5.214 0.912 1.857-0.593 3.648-2.052 5.373-4.376v0c2.189-2.949 3.38-5.565 3.575-7.848 0.189-2.287-0.605-4.091-2.384-5.411v0c-1.597-1.186-3.314-1.474-5.15-0.864-1.831 0.613-3.608 2.082-5.333 4.406v0c-2.189 2.949-3.386 5.561-3.591 7.836-0.205 2.275 0.56 4.057 2.296 5.345z" fill="#ffffff" data-fill-palette-color="primary"></path><path d="M237.033 81.313c-1.096-1.457-0.972-3.461 0.373-6.012v0l3.715-7.378-1.794-2.385-3.858 2.79c-0.782 0.588-1.306 1.07-1.573 1.446-0.262 0.372-0.33 0.756-0.205 1.154 0.124 0.398 0.464 0.987 1.018 1.768v0l-0.135 0.252-2.278 1.239c-0.279-0.415-0.785-1.137-1.518-2.167-0.739-1.026-1.428-1.964-2.068-2.815v0c-0.624-0.829-1.29-1.665-1.997-2.506-0.698-0.84-1.16-1.387-1.386-1.643v0l2.445-1.365c0.82 0.857 1.543 1.304 2.17 1.34 0.625 0.046 1.422-0.296 2.389-1.023v0l13.015-9.791c0.649-0.488 1.029-0.89 1.14-1.208 0.115-0.312 0.013-0.68-0.308-1.105v0c-0.188-0.25-0.377-0.478-0.565-0.686-0.189-0.207-0.31-0.345-0.362-0.414v0l0.121-0.404 2.245-1.214c0.236 0.314 0.657 0.9 1.263 1.76 0.611 0.856 1.22 1.688 1.827 2.496v0c0.676 0.898 1.425 1.855 2.246 2.869 0.816 1.018 1.386 1.721 1.712 2.109v0c1.924 2.557 2.904 4.884 2.94 6.979 0.031 2.1-0.884 3.849-2.744 5.25v0c-1.324 0.996-2.829 1.512-4.517 1.549-1.688 0.046-3.452-0.383-5.291-1.289v0l-2.577 6.584c-0.559 1.403-0.847 2.565-0.863 3.484-0.007 0.921 0.26 1.74 0.8 2.458v0l-0.129 0.459-1.92 1.083zM244.271 66.715c0.87 0.503 1.841 0.826 2.913 0.967 1.073 0.142 2.258-0.275 3.555-1.251v0c1.233-0.928 1.841-2.035 1.823-3.319-0.018-1.285-0.677-2.792-1.977-4.52v0c-0.168-0.223-0.327-0.341-0.477-0.353-0.15-0.012-0.39 0.09-0.72 0.305v0c-2.407 1.603-4.761 3.232-7.062 4.888v0z" fill="#ffffff" data-fill-palette-color="primary"></path><path d="M243.497 91.771l2.713-0.713c0.605 0.998 1.202 1.591 1.792 1.779 0.584 0.19 1.439 0.062 2.564-0.386v0l14.939-5.939c0.835-0.332 1.36-0.641 1.575-0.927 0.218-0.28 0.229-0.667 0.033-1.162v0c-0.116-0.291-0.237-0.561-0.366-0.811-0.128-0.25-0.208-0.415-0.24-0.495v0l0.224-0.357 2.425-0.599 1.92 4.939c0.393 0.989 0.852 2.081 1.378 3.275 0.519 1.197 0.89 2.041 1.114 2.532v0c1.325 3.332 1.573 6.008 0.743 8.028-0.821 2.023-2.313 3.465-4.477 4.325v0c-1.539 0.612-3.17 0.752-4.891 0.419-1.713-0.328-3.266-1.046-4.658-2.153-1.392-1.107-2.409-2.468-3.051-4.082v0l-1.306-3.283-3 1.097c-1.014 0.403-1.737 0.744-2.171 1.024-0.433 0.28-0.687 0.577-0.761 0.893-0.069 0.314 0.005 0.743 0.221 1.287v0c0.145 0.365 0.297 0.712 0.458 1.042 0.16 0.33 0.266 0.56 0.317 0.69v0l-0.147 0.198-2.644 0.643c-0.145-0.365-0.39-1.044-0.735-2.038-0.354-0.998-0.711-1.951-1.072-2.86v0c-0.351-0.884-0.861-2.049-1.529-3.494-0.659-1.442-1.115-2.399-1.368-2.872zM260.28 98.544c1.483 2.217 3.748 2.72 6.796 1.508v0c1.669-0.664 2.705-1.616 3.106-2.856 0.393-1.244 0.185-2.884-0.623-4.918v0c-0.145-0.365-0.267-0.581-0.366-0.649-0.105-0.066-0.32-0.048-0.645 0.052v0c-2.405 0.777-5.451 1.838-9.14 3.183v0z" fill="#ffffff" data-fill-palette-color="primary"></path><path d="M11.747 188.415c-0.415-1.201-0.688-2.349-0.82-3.444-0.125-1.097-0.174-2.023-0.147-2.778 0.034-0.758 0.063-1.141 0.088-1.15v0l0.44-0.5c0.191-0.038 0.61-0.119 1.257-0.244 0.643-0.116 1.501-0.3 2.575-0.552 1.066-0.256 2.08-0.55 3.042-0.882v0l1.347 3.135c-1.459 0.504-2.537 1.021-3.234 1.55-0.695 0.536-1.1 1.165-1.216 1.888-0.108 0.727 0.037 1.666 0.434 2.816v0c0.432 1.251 1.053 2.163 1.863 2.735 0.808 0.566 1.696 0.681 2.664 0.347v0c0.862-0.298 1.453-0.949 1.775-1.954 0.33-1.001 0.612-2.478 0.845-4.43v0c0.013-0.124 0.051-0.475 0.112-1.052v0c0.268-2.281 0.734-4.153 1.397-5.614 0.666-1.455 1.835-2.471 3.508-3.049v0c1.49-0.515 2.983-0.534 4.478-0.058 1.495 0.476 2.849 1.391 4.063 2.746 1.205 1.35 2.156 3.032 2.851 5.044v0c0.397 1.151 0.689 2.24 0.875 3.267 0.182 1.035 0.29 1.878 0.324 2.527 0.032 0.643 0.047 1.054 0.044 1.23v0l-0.414 0.45c-0.166 0.029-0.589 0.087-1.27 0.175-0.687 0.089-1.549 0.243-2.586 0.46-1.039 0.211-2.095 0.456-3.167 0.735v0l-1.236-2.815 0.115-0.43c0.082-0.028 0.25-0.072 0.503-0.132 0.254-0.06 0.566-0.153 0.938-0.281v0c1.17-0.404 1.901-0.987 2.193-1.75 0.295-0.756 0.203-1.826-0.274-3.21v0c-0.389-1.126-0.974-1.955-1.757-2.487-0.782-0.532-1.591-0.654-2.427-0.365v0c-0.629 0.217-1.12 0.64-1.473 1.269-0.351 0.635-0.598 1.336-0.741 2.103-0.143 0.767-0.302 1.867-0.476 3.3v0c-0.207 1.704-0.431 3.133-0.673 4.287-0.242 1.153-0.697 2.211-1.364 3.174-0.663 0.954-1.608 1.643-2.833 2.066v0c-1.566 0.541-3.098 0.567-4.598 0.078-1.499-0.489-2.858-1.438-4.077-2.846-1.217-1.403-2.199-3.189-2.948-5.359z" fill="#ffffff" data-fill-palette-color="primary"></path><path d="M22.501 212.167l2.33-1.284c0.87 0.844 1.61 1.296 2.22 1.355 0.616 0.055 1.398-0.25 2.345-0.916v0l13.129-9.226c0.702-0.493 1.115-0.901 1.238-1.224 0.129-0.326 0.019-0.737-0.329-1.232v0l-0.75-0.998 0.149-0.361 2.134-1.146 2.808 4.065c0.62 0.882 1.881 2.508 3.782 4.879v0l-2.374 1.376c-0.506-0.523-0.924-0.863-1.255-1.021-0.331-0.158-0.679-0.185-1.046-0.082-0.363 0.109-0.891 0.37-1.583 0.784v0l-5.027 3.227 3.062 4.495c0.826 1.176 1.85 2.465 3.072 3.868v0l5.225-3.673c0.702-0.493 1.115-0.901 1.238-1.223 0.129-0.326 0.017-0.74-0.335-1.241v0l-0.767-1.022 0.149-0.361 2.157-1.113 2.968 4.293c0.524 0.746 1.756 2.331 3.697 4.757v0l-2.325 1.378c-0.703-0.758-1.267-1.183-1.69-1.277-0.414-0.091-0.967 0.07-1.66 0.484v0c-2.063 1.287-4.414 2.797-7.051 4.529-2.632 1.728-4.819 3.204-6.561 4.427v0c-0.953 0.669-1.529 1.221-1.729 1.654-0.204 0.428-0.114 0.914 0.269 1.458v0c0.172 0.245 0.507 0.652 1.004 1.221v0l-0.145 0.297-2.343 1.196c-0.222-0.316-0.377-0.56-0.467-0.734v0c-1.165-1.751-2.121-3.157-2.866-4.218v0l-3.354-4.632 2.362-1.257c0.481 0.638 0.935 1.071 1.363 1.298 0.424 0.222 0.905 0.246 1.442 0.073 0.537-0.174 1.224-0.555 2.062-1.145v0l4.376-3.075-2.589-3.754c-0.348-0.495-0.86-1.148-1.535-1.959-0.67-0.814-1.401-1.687-2.193-2.618v0l-4.919 3.311c-0.925 0.65-1.483 1.176-1.673 1.577-0.189 0.401-0.101 0.864 0.267 1.386v0c0.157 0.223 0.482 0.617 0.976 1.181v0l-0.084 0.315-2.343 1.195c-1.078-1.673-2-3.054-2.765-4.143v0c-0.539-0.767-1.236-1.689-2.089-2.764-0.855-1.066-1.514-1.859-1.977-2.38z" fill="#ffffff" data-fill-palette-color="primary"></path><path d="M58.126 252.23c-5.074-3.879-5.799-8.189-2.174-12.93v0l8.055-10.536c0.558-0.729 0.852-1.262 0.883-1.599 0.035-0.342-0.167-0.68-0.605-1.015v0c-0.217-0.166-0.439-0.319-0.667-0.46-0.226-0.131-0.374-0.223-0.442-0.275v0l0.039-0.183 1.93-1.917c0.29 0.256 0.874 0.735 1.751 1.44 0.872 0.7 1.812 1.436 2.822 2.207v0c0.571 0.436 1.315 0.964 2.233 1.582 0.918 0.618 1.529 1.023 1.835 1.214v0l-1.896 2.005c-0.768-0.453-1.375-0.649-1.823-0.59-0.442 0.064-0.914 0.373-1.414 0.929v0l-7.582 9.441c-1.273 1.665-1.902 3.227-1.888 4.687 0.019 1.455 0.699 2.695 2.042 3.721v0c2.743 2.097 5.222 1.698 7.436-1.198v0c1.293-1.691 2.754-3.635 4.383-5.832 1.624-2.201 2.76-3.748 3.41-4.641v0c0.536-0.746 0.826-1.282 0.867-1.611 0.046-0.334-0.14-0.66-0.558-0.979v0c-0.217-0.166-0.444-0.323-0.682-0.471-0.237-0.139-0.4-0.243-0.49-0.312v0l0.04-0.184 1.929-1.916c0.285 0.218 0.797 0.634 1.534 1.248 0.732 0.61 1.47 1.199 2.215 1.769v0c0.703 0.537 1.487 1.095 2.352 1.672 0.86 0.573 1.421 0.94 1.684 1.099v0l-1.834 1.989c-0.693-0.32-1.214-0.526-1.564-0.617-0.349-0.091-0.641-0.071-0.874 0.06-0.243 0.132-0.515 0.394-0.814 0.785v0l-7.831 10.243c-1.879 2.458-4.048 3.794-6.506 4.008-2.454 0.209-5.053-0.735-7.796-2.833z" fill="#ffffff" data-fill-palette-color="primary"></path><path d="M80.816 266.675l1.366-2.449c1.035 0.247 1.825 0.216 2.369-0.091 0.547-0.314 1.052-1.034 1.517-2.16v0l6.09-14.663c0.327-0.793 0.456-1.359 0.387-1.697-0.067-0.344-0.38-0.632-0.94-0.863v0l-1.205-0.454-0.069-0.384 1.222-2.098 5.123 2.156c0.713 0.294 1.768 0.686 3.164 1.175 1.405 0.486 2.327 0.805 2.768 0.958v0l-1.359 2.538c-0.91-0.253-1.602-0.365-2.074-0.337-0.478 0.026-0.847 0.187-1.106 0.483-0.253 0.299-0.559 0.806-0.919 1.521v0c-1.857 3.718-3.929 8.35-6.217 13.898v0c-0.284 0.689-0.427 1.22-0.43 1.593-0.009 0.371 0.13 0.68 0.416 0.927 0.284 0.254 0.77 0.523 1.46 0.807v0c1.279 0.528 2.291 0.779 3.035 0.755 0.741-0.018 1.43-0.36 2.064-1.027 0.629-0.669 1.4-1.816 2.314-3.439v0l3.241 0.937 0.111 0.488c-0.274 0.455-0.872 1.486-1.793 3.093-0.915 1.609-1.835 3.316-2.76 5.123v0l-0.534 0.222c-0.685-0.311-2.157-0.983-4.416-2.015-2.262-1.041-4.325-1.945-6.188-2.714v0c-1.408-0.581-2.774-1.083-4.097-1.506-1.314-0.427-2.16-0.686-2.54-0.777z" fill="#ffffff" data-fill-palette-color="primary"></path><path d="M112.74 277.141l0.733-2.613c1.273 0.08 2.199 0.054 2.778-0.08 0.579-0.134 1.006-0.459 1.28-0.976 0.274-0.517 0.507-1.403 0.699-2.659v0l2.512-16.435c-1.593-0.19-2.726-0.221-3.397-0.095-0.678 0.119-1.189 0.495-1.536 1.128-0.351 0.626-0.756 1.799-1.214 3.519v0l-3.392-0.266c0.538-2.24 1.147-5.125 1.828-8.655v0l0.512-0.376 3.996 1.065 12.775 1.953 4.212 0.19 0.385 0.513c-0.449 3.29-0.747 6.138-0.892 8.546v0l-3.392-0.267c0.06-1.889 0.027-3.193-0.098-3.911-0.126-0.719-0.467-1.239-1.024-1.56-0.549-0.326-1.569-0.63-3.061-0.912v0c-0.447 1.998-0.985 4.726-1.614 8.183-0.622 3.452-1.15 6.598-1.584 9.439v0c-0.155 1.013-0.088 1.767 0.199 2.261 0.289 0.488 0.828 0.793 1.617 0.914v0c0.684 0.105 1.413 0.176 2.188 0.213v0l0.138 0.223-0.786 2.697c-2.883-0.555-5.226-0.97-7.027-1.246v0c-1.421-0.217-3.699-0.481-6.835-0.793z" fill="#ffffff" data-fill-palette-color="primary"></path><path d="M144.291 280l-1.174-1.718 12.331-23.355-5.328 0.873c-1.198 0.253-2.096 0.57-2.694 0.951-0.604 0.381-1.013 0.937-1.227 1.667-0.221 0.731-0.319 1.76-0.294 3.088v0l-3.401 0.59c-0.005-0.581-0.011-1.818-0.019-3.709-0.008-1.885-0.065-3.627-0.171-5.228v0l0.377-0.449 7.383-0.285 12.022-1.03 0.87 1.578c-4.317 7.124-8.571 14.879-12.762 23.268v0l6.508-1.111c1.364-0.27 2.373-0.939 3.029-2.007 0.663-1.062 1.049-2.682 1.16-4.86v0l3.358-0.626c-0.026 0.611-0.062 1.925-0.108 3.942-0.046 2.017-0.028 3.871 0.053 5.561v0l-0.618 0.844-16.239 1.38z" fill="#ffffff" data-fill-palette-color="primary"></path><path d="M189.874 270.565c-2.354 0.886-4.581 1.162-6.683 0.83-2.101-0.332-3.964-1.241-5.59-2.727-1.625-1.485-2.91-3.483-3.854-5.992v0c-1.031-2.74-1.373-5.34-1.027-7.803 0.346-2.462 1.334-4.643 2.965-6.543 1.633-1.894 3.807-3.352 6.522-4.373v0c0.959-0.361 2.012-0.679 3.159-0.954 1.156-0.272 2.152-0.476 2.99-0.614 0.831-0.135 1.358-0.216 1.582-0.243v0l0.423 0.416c0.018 0.199 0.084 0.647 0.197 1.345 0.113 0.697 0.3 1.618 0.56 2.764 0.252 1.142 0.566 2.335 0.942 3.58v0l-3.592 1.618c-0.037-0.1-0.115-0.344-0.233-0.733-0.116-0.383-0.266-0.82-0.451-1.313v0c-0.429-1.139-1.091-1.843-1.988-2.109-0.897-0.267-2.095-0.118-3.596 0.447v0c-2.042 0.769-3.329 2.081-3.861 3.937-0.527 1.848-0.26 4.182 0.801 7.002v0c1.197 3.182 2.702 5.434 4.516 6.757 1.809 1.331 3.75 1.606 5.823 0.826v0c1.42-0.534 2.368-1.385 2.846-2.553 0.478-1.168 0.516-2.757 0.115-4.767v0l3.629-1.632c0.092 0.47 0.323 1.492 0.695 3.065 0.372 1.573 0.783 3.043 1.233 4.409v0l-0.207 0.611c0.009 0.025-0.368 0.334-1.134 0.927-0.769 0.602-1.735 1.254-2.9 1.955-1.163 0.708-2.457 1.33-3.882 1.867z" fill="#ffffff" data-fill-palette-color="primary"></path><path d="M221.142 252.931c-1.948 1.45-3.955 2.28-6.021 2.491-2.066 0.211-4.066-0.187-6.001-1.193-1.94-1.002-3.711-2.579-5.312-4.73v0c-1.716-2.306-2.769-4.673-3.159-7.103-0.396-2.426-0.132-4.741 0.789-6.945 0.931-2.203 2.473-4.105 4.624-5.705v0c1.996-1.486 4.028-2.355 6.095-2.609 2.071-0.248 4.071 0.126 5.997 1.122 1.927 0.996 3.691 2.569 5.292 4.72v0c1.716 2.306 2.779 4.691 3.188 7.157 0.409 2.466 0.139 4.811-0.81 7.034-0.949 2.224-2.509 4.144-4.682 5.761zM219.903 249.462c1.596-1.188 2.378-2.744 2.347-4.67-0.037-1.922-0.903-4.022-2.6-6.301v0c-2.165-2.909-4.297-4.776-6.397-5.601-2.098-0.835-4.022-0.601-5.772 0.701v0c-1.574 1.172-2.332 2.711-2.274 4.616 0.049 1.904 0.923 3.998 2.623 6.283v0c2.161 2.903 4.288 4.775 6.381 5.614 2.093 0.839 3.99 0.625 5.692-0.642z" fill="#ffffff" data-fill-palette-color="primary"></path><path d="M253.858 218.758c-1.078 1.437-3.009 1.872-5.794 1.305v0l-7.998-1.495-1.766 2.355 3.696 2.872c0.777 0.583 1.376 0.949 1.796 1.098 0.43 0.148 0.814 0.107 1.152-0.122 0.343-0.225 0.809-0.707 1.397-1.447v0l0.271 0.054 1.807 1.816c-0.326 0.379-0.873 1.058-1.641 2.038-0.768 0.979-1.467 1.889-2.098 2.73v0c-0.611 0.814-1.218 1.669-1.822 2.563-0.599 0.898-0.987 1.488-1.166 1.77v0l-1.966-1.936c0.587-1.015 0.811-1.824 0.673-2.427-0.133-0.599-0.676-1.255-1.629-1.97v0l-12.829-9.623c-0.644-0.483-1.129-0.735-1.455-0.754-0.331-0.024-0.655 0.174-0.97 0.594v0c-0.18 0.239-0.343 0.479-0.489 0.719-0.141 0.243-0.236 0.397-0.283 0.461v0l-0.421-0.004-1.767-1.786c0.236-0.314 0.673-0.875 1.314-1.685 0.644-0.814 1.265-1.621 1.864-2.419v0c0.663-0.883 1.363-1.851 2.102-2.902 0.739-1.051 1.247-1.784 1.525-2.199v0c1.888-2.517 3.822-4.081 5.802-4.692 1.971-0.609 3.874-0.225 5.71 1.152v0c1.304 0.978 2.209 2.26 2.716 3.846 0.498 1.587 0.572 3.373 0.224 5.357v0l6.933 0.635c1.48 0.145 2.656 0.096 3.529-0.148 0.873-0.243 1.575-0.719 2.106-1.427v0l0.477-0.003 1.551 1.524zM238.056 215.925c0.238-0.961 0.278-1.967 0.118-3.018-0.156-1.056-0.875-2.066-2.157-3.028v0c-1.219-0.914-2.434-1.185-3.645-0.812-1.211 0.372-2.455 1.41-3.732 3.113v0c-0.164 0.218-0.23 0.401-0.2 0.549 0.029 0.138 0.19 0.334 0.483 0.587v0c2.178 1.842 4.367 3.625 6.567 5.349v0z" fill="#ffffff" data-fill-palette-color="primary"></path><path d="M262.57 202.894l-2.418-1.321c0.236-1.123 0.206-1.95-0.092-2.483-0.291-0.53-0.99-1.014-2.097-1.452v0l-14.719-5.821c-0.823-0.325-1.41-0.461-1.76-0.406-0.351 0.054-0.623 0.326-0.816 0.815v0c-0.11 0.278-0.204 0.552-0.282 0.822-0.072 0.272-0.122 0.445-0.152 0.519v0l-0.407 0.108-2.153-1.206 1.96-4.848c0.384-0.971 0.795-2.064 1.233-3.279 0.435-1.209 0.737-2.062 0.905-2.561v0c1.299-3.285 2.927-5.375 4.883-6.268 1.956-0.893 4.001-0.918 6.135-0.074v0c1.516 0.599 2.777 1.599 3.783 2.998 1.009 1.393 1.639 2.955 1.892 4.687 0.25 1.737 0.061 3.401-0.568 4.991v0l-1.281 3.238 2.904 1.234c1.002 0.396 1.749 0.642 2.241 0.736 0.501 0.091 0.882 0.048 1.145-0.126 0.265-0.181 0.504-0.541 0.717-1.08v0c0.142-0.359 0.267-0.71 0.373-1.054 0.107-0.344 0.187-0.581 0.239-0.711v0l0.238-0.034 2.324 1.316c-0.142 0.359-0.422 1.013-0.841 1.964-0.419 0.95-0.806 1.874-1.16 2.771v0c-0.345 0.872-0.768 2.05-1.269 3.534-0.495 1.486-0.814 2.483-0.957 2.991zM255.108 186.7c0.431-2.591-0.857-4.481-3.864-5.67v0c-1.639-0.648-3.022-0.662-4.147-0.041-1.122 0.63-2.079 1.947-2.872 3.951v0c-0.142 0.359-0.2 0.597-0.175 0.714 0.028 0.111 0.191 0.24 0.491 0.388v0c2.253 1.07 5.156 2.368 8.708 3.894v0z" fill="#ffffff" data-fill-palette-color="primary"></path><path d="M11.199 143.747c0-1.742 1.412-3.154 3.155-3.154 1.742 0 3.154 1.412 3.154 3.154 0 1.742-1.412 3.154-3.154 3.155-1.742 0-3.154-1.412-3.155-3.155z" fill="#ffffff" data-fill-palette-color="primary"></path><path d="M262.686 143.747c0-1.742 1.412-3.154 3.154-3.154 1.742 0 3.154 1.412 3.155 3.154 0 1.742-1.412 3.154-3.155 3.155-1.742 0-3.154-1.412-3.154-3.155z" fill="#ffffff" data-fill-palette-color="primary"></path></g></svg></g></svg></g></svg></g></svg></g><defs></defs></svg><rect width="280" height="280" fill="none" stroke="none" visibility="hidden"></rect></g></svg></g></svg>